<?xml version="1.0" ?><!DOCTYPE svg  PUBLIC '-//W3C//DTD SVG 1.1//EN'  'http://www.w3.org/Graphics/SVG/1.1/DTD/svg11.dtd'><svg height="512px" id="Слой_1" style="enable-background:new 0 0 512 512;" version="1.1" viewBox="0 0 512 512" width="512px" xml:space="preserve" xmlns="http://www.w3.org/2000/svg" xmlns:xlink="http://www.w3.org/1999/xlink"><path d="M172.048,165.749c-13.928,0-25.248,11.161-25.248,24.91c0,13.769,11.32,24.899,25.248,24.899  c13.927,0,25.226-11.13,25.226-24.899C197.274,176.91,185.975,165.749,172.048,165.749z M353.532,165.749  c-13.938,0-25.216,11.161-25.216,24.91c0,13.769,11.278,24.93,25.216,24.93c13.992,0,25.29-11.161,25.29-24.93  C378.822,176.91,367.524,165.749,353.532,165.749z M506,190.648c0-84.391-69.196-153.038-154.274-153.038  c-33.146,0-64.317,10.686-89.84,28.954c-25.543-18.247-56.724-28.954-89.839-28.954c-85.057,0-154.253,68.647-154.253,153.038  c0,15.702,2.429,30.897,6.959,45.226C12.822,247.922,6,264.31,6,281.5v117.284c0,20.464,9.662,39.735,26.05,51.984  c29.281,21.88,60.115,9.356,91.349,0.085c11.911,14.381,29.894,23.536,50,23.536h150.704c20.897,0,40.537-10.073,52.713-27.064  c12.174-16.979,15.448-38.795,8.742-58.595l-15.586-46.102C446.487,333.665,506,268.925,506,190.648z M351.737,278.85h-71.835  l44.191,130.674H173.389v-41.151L70.867,398.784V281.5l102.522,27.402V278.85h-2.683v-0.031  c-48.742-0.729-88.034-39.915-88.034-88.161c0-48.669,40.01-88.171,89.376-88.171c44.909,0,82.046,32.66,88.435,75.194h2.872  c6.304-42.533,43.473-75.194,88.382-75.194c49.376,0,89.407,39.503,89.407,88.171C441.144,239.348,401.113,278.85,351.737,278.85z" style="fill:#3C3C3B;"/></svg>