<?xml version="1.0" ?><svg height="512" id="Layer_1" version="1.1" viewBox="0 0 512 512" width="512" xml:space="preserve" xmlns="http://www.w3.org/2000/svg" xmlns:cc="http://creativecommons.org/ns#" xmlns:dc="http://purl.org/dc/elements/1.1/" xmlns:inkscape="http://www.inkscape.org/namespaces/inkscape" xmlns:rdf="http://www.w3.org/1999/02/22-rdf-syntax-ns#" xmlns:sodipodi="http://sodipodi.sourceforge.net/DTD/sodipodi-0.dtd" xmlns:svg="http://www.w3.org/2000/svg"><defs id="defs12"/><g id="g2994"><rect height="512" id="rect2987" rx="64" ry="64" style="fill:#0a0a0a;fill-opacity:1;fill-rule:nonzero;stroke:none" width="512" x="0" y="0"/><path d="m -334.42552,609.41296 a 187.92262,187.92262 0 1 1 -375.84525,0 187.92262,187.92262 0 1 1 375.84525,0 z" id="path3765" style="fill:#ffffff;fill-opacity:1;fill-rule:nonzero;stroke:none" transform="matrix(1.0642678,0,0,1.0642678,811.91831,-392.57859)"/><g id="g4" style="fill:#0a0a0a;fill-opacity:1" transform="matrix(0.74711987,0,0,0.74711987,52.464864,76.636689)"><path d="m 384.071,263.462 c 19.528,-10.414 19.528,-54.683 -7.165,-70.958 -21.482,-12.367 -33.197,4.559 -41.01,25.391 -0.653,1.951 -0.653,3.254 0.647,4.557 13.023,14.32 14.325,58.588 47.528,41.01 z M 249.313,177.531 c -35.805,18.879 -33.85,59.241 -13.02,69.657 25.391,11.066 34.504,-20.833 48.827,-31.899 0.647,-0.65 1.301,-1.951 1.301,-2.604 0,-24.085 -12.369,-46.871 -37.108,-35.154 z m 28.642,112.622 c 7.165,1.955 11.721,2.605 17.579,10.416 5.21,10.417 2.603,-3.254 23.438,-5.207 13.67,-1.303 10.414,-14.322 0,-16.926 -9.114,-3.256 -22.79,-5.207 -33.204,-4.557 -17.574,10e-4 -16.926,13.671 -7.813,16.274 z M 386.02,101.366 c 7.813,2.604 20.835,13.02 27.347,22.133 14.317,19.531 36.453,-0.65 44.919,-17.576 6.505,-12.369 3.249,-30.597 -13.022,-46.22 -14.971,-14.322 -44.919,-19.531 -61.845,9.113 -10.415,17.577 -8.467,27.341 2.601,32.55 z m 61.844,92.441 c 1.302,52.079 -29.941,108.065 -96.343,108.717 -16.926,0 -11.722,26.689 -42.971,13.02 -22.13,-14.974 -35.152,14.973 -50.773,-16.925 -3.907,-9.115 -9.116,-13.021 -15.625,-14.975 -65.749,-16.273 -86.583,-106.763 -28.644,-179.674 11.068,7.16 15.625,8.463 27.994,-3.255 5.857,-5.858 16.927,-12.37 22.783,-14.322 13.67,-5.207 21.482,-11.066 9.113,-37.758 C 267.707,36.061 260.45033,26.798373 241.87633,26.362373 223.30233,25.926373 216.674,31.961 212.206,35.615 c -16.926,13.672 -27.992,35.154 -7.162,60.542 -58.589,39.711 -69.005,88.536 -67.702,131.501 1.301,44.919 -9.766,41.015 4.557,86.582 1.301,3.906 -1.953,3.906 -3.906,2.604 C 76.8,277.786 43.6,158.002 139.296,92.252 c 1.953,-1.952 1.301,-4.557 -6.511,0 -82.675,43.616 -90.488,128.246 -76.816,185.534 6.51,27.341 -3.256,32.549 7.16,69.005 24.738,75.515 45.57,82.026 75.515,83.98 54.033,0 16.926,-29.948 19.531,-67.055 0,-2.603 2.604,-3.256 3.904,1.301 29.947,66.401 50.778,126.945 128.898,121.088 44.919,-5.864 20.182,-27.994 16.926,-41.017 -33.204,-110.017 47.521,-136.056 24.738,-28.641 -14.972,61.845 32.55,55.333 66.401,33.197 34.504,-22.13 77.469,-172.512 52.731,-255.187 -1.3,-5.207 -3.909,-4.557 -3.909,-0.65 z M 272.751,318.798 c 0,-0.651 1.301,-0.651 1.301,0 17.573,3.905 33.852,5.858 44.92,5.858 0.646,0 1.3,-0.65 1.3,0.65 -7.812,19.53 -46.22,13.019 -47.521,-6.508 z" id="path6" style="fill:#0a0a0a;fill-opacity:1;fill-rule:evenodd"/></g></g></svg>