<?xml version="1.0" ?><!DOCTYPE svg  PUBLIC '-//W3C//DTD SVG 1.1//EN'  'http://www.w3.org/Graphics/SVG/1.1/DTD/svg11.dtd'><svg height="140px" id="Layer_1" style="enable-background:new 0 0 140 140;" version="1.1" viewBox="0 0 140 140" width="140px" xml:space="preserve" xmlns="http://www.w3.org/2000/svg" xmlns:xlink="http://www.w3.org/1999/xlink"><g><path d="M70,130c-33.084,0-60-26.917-60-60s26.916-60,60-60s60,26.917,60,60S103.084,130,70,130z" style="fill:#F2F2F2;"/><circle cx="70" cy="70" r="58.064" style="fill:#4081B3;"/><g><path d="M70,108.709c-17.889,0-32.406-27.689-32.406-45.762C37.594,45.491,52.131,31.29,70,31.29    s32.406,14.201,32.406,31.657C102.406,81.02,87.889,108.709,70,108.709z" style="fill:#B3B3B3;"/><path d="M62.436,58.046c0,3.105-2.576,5.625-5.762,5.625s-5.762-2.52-5.762-5.625s2.576-5.622,5.762-5.622    S62.436,54.94,62.436,58.046z" style="fill:#808080;"/><path d="M70.105,31.293v77.412c17.84-0.107,32.301-27.721,32.301-45.757    C102.406,45.526,87.926,31.349,70.105,31.293z" style="fill:#999999;"/><path d="M89.33,58.046c0,3.105-2.576,5.625-5.764,5.625c-3.187,0-5.763-2.52-5.763-5.625    s2.576-5.622,5.763-5.622C86.754,52.424,89.33,54.94,89.33,58.046z" style="fill:#808080;"/><path d="M56.674,64.639c-3.711,0-6.73-2.957-6.73-6.593c0-3.634,3.021-6.59,6.73-6.59s6.73,2.956,6.73,6.59    C63.404,61.682,60.385,64.639,56.674,64.639z M56.674,53.392c-2.643,0-4.795,2.087-4.795,4.654c0,2.568,2.152,4.657,4.795,4.657    s4.795-2.089,4.795-4.657C61.469,55.479,59.316,53.392,56.674,53.392z" style="fill:#4D4D4D;"/><path d="M83.566,64.639c-3.711,0-6.729-2.957-6.729-6.593c0-3.634,3.021-6.59,6.729-6.59    c3.713,0,6.732,2.956,6.732,6.59C90.299,61.682,87.279,64.639,83.566,64.639z M83.566,53.392c-2.643,0-4.795,2.087-4.795,4.654    c0,2.568,2.152,4.657,4.795,4.657c2.646,0,4.797-2.089,4.797-4.657C88.363,55.479,86.211,53.392,83.566,53.392z" style="fill:#4D4D4D;"/><path d="M66.16,73.784c-0.535,0-0.969-0.435-0.969-0.97c0-1.648,2.022-2.845,4.809-2.845    c2.787,0,4.809,1.195,4.809,2.845c0,0.535-0.434,0.968-0.967,0.968c-0.535,0-0.969-0.433-0.969-0.968    C72.828,72.6,71.879,71.906,70,71.906s-2.828,0.693-2.873,0.912C67.127,73.354,66.693,73.784,66.16,73.784z" style="fill:#4D4D4D;"/><path d="M68.078,82.188c0,1.039-0.857,1.877-1.918,1.877c-1.064,0-1.922-0.838-1.922-1.877    s0.856-1.875,1.922-1.875C67.221,80.313,68.078,81.15,68.078,82.188z" style="fill:#4D4D4D;"/><ellipse cx="73.842" cy="82.188" rx="1.92" ry="1.876" style="fill:#4D4D4D;"/><path d="M68.078,89.689c0,1.035-0.857,1.873-1.918,1.873c-1.064,0-1.922-0.838-1.922-1.873    s0.856-1.875,1.922-1.875C67.221,87.814,68.078,88.655,68.078,89.689z" style="fill:#4D4D4D;"/><ellipse cx="73.842" cy="89.69" rx="1.92" ry="1.872" style="fill:#4D4D4D;"/><path d="M68.078,97.191c0,1.035-0.857,1.877-1.918,1.877c-1.064,0-1.922-0.842-1.922-1.877    c0-1.039,0.856-1.877,1.922-1.877C67.221,95.314,68.078,96.152,68.078,97.191z" style="fill:#4D4D4D;"/><ellipse cx="73.842" cy="97.191" rx="1.92" ry="1.877" style="fill:#4D4D4D;"/></g></g></svg>