<?xml version="1.0" ?><!DOCTYPE svg  PUBLIC '-//W3C//DTD SVG 1.1//EN'  'http://www.w3.org/Graphics/SVG/1.1/DTD/svg11.dtd'><svg enable-background="new 0 0 512 512" height="512px" id="Layer_1" version="1.1" viewBox="0 0 512 512" width="512px" xml:space="preserve" xmlns="http://www.w3.org/2000/svg" xmlns:xlink="http://www.w3.org/1999/xlink"><path d="M492.531,442.732c0,34.171-27.702,61.872-61.873,61.872H80.916c-34.171,0-61.874-27.701-61.874-61.872  V92.987c0-34.171,27.703-61.873,61.874-61.873h349.743c34.171,0,61.873,27.701,61.873,61.873V442.732z" fill="#2F6D20"/><path d="M492.531,417.988c0,34.172-27.702,61.873-61.873,61.873H80.916c-34.171,0-61.874-27.701-61.874-61.873  V68.243c0-34.171,27.703-61.872,61.874-61.872h349.743c34.171,0,61.873,27.701,61.873,61.872V417.988z" fill="#65BC54"/><path d="M492.531,417.988v-157.09c-0.241-0.239-0.485-0.477-0.725-0.717c-4.16-4.159-8.215-8.472-12.509-12.492  c-4.02-4.294-8.333-8.349-12.491-12.508c-4.16-4.16-8.215-8.472-12.509-12.492c-4.02-4.294-8.333-8.349-12.491-12.508  c-4.16-4.16-8.215-8.472-12.509-12.492c-4.02-4.294-8.333-8.349-12.491-12.508c-4.16-4.16-8.215-8.472-12.509-12.492  c-4.02-4.294-8.333-8.349-12.491-12.508c-4.119-4.119-8.157-8.342-12.371-12.363c-4.165-3.973-9.606-5.928-15.315-5.928  c-1.495,0-2.989,0-4.483,0c-6.797,0-13.594,0-20.391,0c-10.542,0-21.084,0-31.627,0c-12.691,0-25.382,0-38.072,0  c-13.242,0-26.484,0-39.727,0c-12.195,0-24.391,0-36.587,0c-9.552,0-19.104,0-28.656,0c-5.311,0-10.622,0-15.934,0  c-1.879,0-3.731,0.006-5.597,0.345c-8.852,1.606-15.938,8.871-17.318,17.761c-0.333,2.144-0.254,4.329-0.254,6.492  c0,3.398,0,6.797,0,10.196c0,11.308,0,22.617,0,33.925c0,13.042,0,26.085,0,39.127c0,9.639,0,19.277,0,28.916  c0,1.938,0,3.875,0,5.813c0,2.959,0.544,5.877,1.709,8.604c2.195,5.13,6.543,8.59,10.333,12.504c8.197,8.465,16.803,16.534,25,25  c8.197,8.465,16.803,16.534,25,25c8.197,8.465,16.803,16.534,25,25c8.197,8.465,16.803,16.534,25,25  c8.197,8.465,16.803,16.534,25,25c4.092,4.227,43.825,43.959,48.051,48.051c0.417,0.403,0.827,0.819,1.237,1.236h118.854  C464.829,479.861,492.531,452.16,492.531,417.988z" fill="#449234"/><path d="M364.673,141.892H146.897c-11.831,0-21.423,9.59-21.423,21.419v121.385c0,11.829,9.592,21.422,21.423,21.422  h34.807v23.473c0,15.707,9.091,19.471,20.198,8.363l31.837-31.836h130.933c11.831,0,21.423-9.593,21.423-21.422V163.311  C386.096,151.482,376.504,141.892,364.673,141.892z M208.706,207.493c9.117,0,16.512,7.393,16.512,16.512  c0,9.118-7.395,16.512-16.512,16.512c-9.118,0-16.512-7.395-16.512-16.512C192.194,214.886,199.588,207.493,208.706,207.493z   M256.008,240.517c-9.118,0-16.512-7.395-16.512-16.512c0-9.119,7.395-16.512,16.512-16.512c9.121,0,16.512,7.393,16.512,16.512  C272.52,233.123,265.129,240.517,256.008,240.517z M302.867,240.517c-9.121,0-16.512-7.395-16.512-16.512  c0-9.119,7.391-16.512,16.512-16.512c9.122,0,16.51,7.393,16.51,16.512C319.377,233.123,311.989,240.517,302.867,240.517z" fill="#FFFFFF"/></svg>